<?xml version="1.0" encoding="utf-8"?>
<!-- Generator: Adobe Illustrator 27.5.0, SVG Export Plug-In . SVG Version: 6.00 Build 0)  -->
<svg version="1.1" xmlns="http://www.w3.org/2000/svg" xmlns:xlink="http://www.w3.org/1999/xlink" x="0px" y="0px"
	 viewBox="0 0 1706.7 1706.7" style="enable-background:new 0 0 1706.7 1706.7;" xml:space="preserve">
<style type="text/css">
	.st0{fill:#4B5563;}
</style>
<g id="Layer_2">
	<path d="M105.3,75.7c-14,4.7-26.7,18.8-29.6,33.1c-5.7,27.5,21.7,54.9,49.2,49.2c20.7-4.3,36.7-25.3,34.7-45.2
		c-1.5-14-12-28.4-25.3-34.9C126.1,73.9,113.6,73,105.3,75.7z M276,75.7c-20.1,6.7-33.7,28.8-29.6,48.3c3.3,15.9,18.1,30.7,33.9,34
		c25.9,5.5,52.7-18.9,50-45.2c-1.5-14-12-28.4-25.3-34.9C296.8,73.9,284.2,73,276,75.7z M446.6,75.7c-14,4.7-26.7,18.8-29.6,33.1
		c-5.7,27.5,21.7,54.9,49.2,49.2c20.7-4.3,36.7-25.3,34.7-45.2c-1.5-14-12-28.4-25.3-34.9C467.4,73.9,454.9,73,446.6,75.7
		L446.6,75.7z M617.3,75.7c-14,4.7-26.7,18.8-29.6,33.1c-5.7,27.5,21.7,54.9,49.2,49.2c20.7-4.3,36.7-25.3,34.7-45.2
		c-1.5-14-12-28.4-25.3-34.9C638.1,73.9,625.6,73,617.3,75.7L617.3,75.7z M788,75.7c-14,4.7-26.7,18.8-29.6,33.1
		c-5.7,27.5,21.7,54.9,49.2,49.2c20.7-4.3,36.7-25.3,34.7-45.2c-1.5-14-12-28.4-25.3-34.9C808.8,73.9,796.2,73,788,75.7z
		 M958.6,75.7c-14,4.7-26.7,18.8-29.6,33.1c-5.7,27.5,21.7,54.9,49.2,49.2c20.7-4.3,36.7-25.3,34.7-45.2c-1.5-14-12-28.4-25.3-34.9
		C979.4,73.9,966.9,73,958.6,75.7z M1129.3,75.7c-14,4.7-26.7,18.8-29.6,33.1c-5.7,27.5,21.7,54.9,49.2,49.2
		c20.7-4.3,36.7-25.3,34.7-45.2c-1.5-14-12-28.4-25.3-34.9C1150.1,73.9,1137.6,73,1129.3,75.7z M1300,75.7
		c-14,4.7-26.7,18.8-29.6,33.1c-5.7,27.5,21.7,54.9,49.2,49.2c20.7-4.3,36.7-25.3,34.7-45.2c-1.5-14-12-28.4-25.3-34.9
		C1320.8,73.9,1308.2,73,1300,75.7z M1470.6,75.7c-14,4.7-26.7,18.8-29.6,33.1c-3.3,15.6,4.3,32.5,18.9,42.5
		c14.3,9.9,30.5,10,44.9,0.4c23.6-15.7,26.8-45.1,7.1-64.7C1500.6,75.5,1484.4,71.1,1470.6,75.7z M1641.3,75.7
		c-14,4.7-26.7,18.8-29.6,33.1c-3.3,15.6,4.3,32.5,18.9,42.5c14.3,9.9,30.5,10,44.9,0.4c23.6-15.7,26.8-45.1,7.1-64.7
		C1671.3,75.5,1655,71.1,1641.3,75.7z M105.3,246.3c-14,4.7-26.7,18.8-29.6,33.1c-5.7,27.5,21.7,54.9,49.2,49.2
		c20.7-4.3,36.7-25.3,34.7-45.2c-1.5-14-12-28.4-25.3-34.9C126.1,244.6,113.6,243.7,105.3,246.3L105.3,246.3z M276,246.3
		c-20.1,6.7-33.7,28.8-29.6,48.3c3.3,15.9,18.1,30.7,33.9,34c25.9,5.5,52.7-18.9,50-45.2c-1.5-14-12-28.4-25.3-34.9
		C296.8,244.6,284.2,243.7,276,246.3L276,246.3z M446.6,246.3c-14,4.7-26.7,18.8-29.6,33.1c-5.7,27.5,21.7,54.9,49.2,49.2
		c20.7-4.3,36.7-25.3,34.7-45.2c-1.5-14-12-28.4-25.3-34.9C467.4,244.6,454.9,243.7,446.6,246.3L446.6,246.3z M617.3,246.3
		c-14,4.7-26.7,18.8-29.6,33.1c-5.7,27.5,21.7,54.9,49.2,49.2c20.7-4.3,36.7-25.3,34.7-45.2c-1.5-14-12-28.4-25.3-34.9
		C638.1,244.6,625.6,243.7,617.3,246.3L617.3,246.3z M788,246.3c-14,4.7-26.7,18.8-29.6,33.1c-5.7,27.5,21.7,54.9,49.2,49.2
		c20.7-4.3,36.7-25.3,34.7-45.2c-1.5-14-12-28.4-25.3-34.9C808.8,244.6,796.2,243.7,788,246.3L788,246.3z M958.6,246.3
		c-14,4.7-26.7,18.8-29.6,33.1c-5.7,27.5,21.7,54.9,49.2,49.2c20.7-4.3,36.7-25.3,34.7-45.2c-1.5-14-12-28.4-25.3-34.9
		C979.4,244.6,966.9,243.7,958.6,246.3L958.6,246.3z M1129.3,246.3c-14,4.7-26.7,18.8-29.6,33.1c-5.7,27.5,21.7,54.9,49.2,49.2
		c20.7-4.3,36.7-25.3,34.7-45.2c-1.5-14-12-28.4-25.3-34.9C1150.1,244.6,1137.6,243.7,1129.3,246.3L1129.3,246.3z M1300,246.3
		c-14,4.7-26.7,18.8-29.6,33.1c-5.7,27.5,21.7,54.9,49.2,49.2c20.7-4.3,36.7-25.3,34.7-45.2c-1.5-14-12-28.4-25.3-34.9
		C1320.8,244.6,1308.2,243.7,1300,246.3L1300,246.3z M1470.6,246.3c-14,4.7-26.7,18.8-29.6,33.1c-3.3,15.6,4.3,32.5,18.9,42.5
		c14.3,9.9,30.5,10,44.9,0.4c23.6-15.7,26.8-45.1,7.1-64.7C1500.6,246.2,1484.4,241.8,1470.6,246.3z M1641.3,246.3
		c-14,4.7-26.7,18.8-29.6,33.1c-3.3,15.6,4.3,32.5,18.9,42.5c14.3,9.9,30.5,10,44.9,0.4c23.6-15.7,26.8-45.1,7.1-64.7
		C1671.3,246.2,1655,241.8,1641.3,246.3z M105.3,417c-14,4.7-26.7,18.8-29.6,33.1c-5.7,27.5,21.7,54.9,49.2,49.2
		c20.7-4.3,36.7-25.3,34.7-45.2c-1.5-14-12-28.4-25.3-34.9C126.1,415.3,113.6,414.3,105.3,417L105.3,417z M276,417
		c-14,4.7-26.7,18.8-29.6,33.1c-5.7,27.5,21.7,54.9,49.2,49.2c20.7-4.3,36.7-25.3,34.7-45.2c-1.5-14-12-28.4-25.3-34.9
		C296.8,415.3,284.2,414.3,276,417L276,417z M446.6,417c-14,4.7-26.7,18.8-29.6,33.1c-5.7,27.5,21.7,54.9,49.2,49.2
		c20.7-4.3,36.7-25.3,34.7-45.2c-1.5-14-12-28.4-25.3-34.9C467.4,415.3,454.9,414.3,446.6,417L446.6,417z M617.3,417
		c-14,4.7-26.7,18.8-29.6,33.1c-5.7,27.5,21.7,54.9,49.2,49.2c20.7-4.3,36.7-25.3,34.7-45.2c-1.5-14-12-28.4-25.3-34.9
		C638.1,415.3,625.6,414.3,617.3,417L617.3,417z M788,417c-14,4.7-26.7,18.8-29.6,33.1c-5.7,27.5,21.7,54.9,49.2,49.2
		c20.7-4.3,36.7-25.3,34.7-45.2c-1.5-14-12-28.4-25.3-34.9C808.8,415.3,796.2,414.3,788,417L788,417z M958.6,417
		c-14,4.7-26.7,18.8-29.6,33.1c-5.7,27.5,21.7,54.9,49.2,49.2c20.7-4.3,36.7-25.3,34.7-45.2c-1.5-14-12-28.4-25.3-34.9
		C979.4,415.3,966.9,414.3,958.6,417L958.6,417z M1129.3,417c-14,4.7-26.7,18.8-29.6,33.1c-5.7,27.5,21.7,54.9,49.2,49.2
		c20.7-4.3,36.7-25.3,34.7-45.2c-1.5-14-12-28.4-25.3-34.9C1150.1,415.3,1137.6,414.3,1129.3,417L1129.3,417z M1300,417
		c-14,4.7-26.7,18.8-29.6,33.1c-5.7,27.5,21.7,54.9,49.2,49.2c20.7-4.3,36.7-25.3,34.7-45.2c-1.5-14-12-28.4-25.3-34.9
		C1320.8,415.3,1308.2,414.3,1300,417L1300,417z M1470.6,417c-14,4.7-26.7,18.8-29.6,33.1c-5.7,27.5,21.7,54.9,49.2,49.2
		c20.7-4.3,36.7-25.3,34.7-45.2c-1.5-14-12-28.4-25.3-34.9C1491.4,415.3,1478.9,414.3,1470.6,417L1470.6,417z M1641.3,417
		c-14,4.7-26.7,18.8-29.6,33.1c-5.7,27.5,21.7,54.9,49.2,49.2c20.7-4.3,36.7-25.3,34.7-45.2c-1.5-14-12-28.4-25.3-34.9
		C1662.1,415.3,1649.6,414.3,1641.3,417L1641.3,417z M105.3,587.7c-14,4.7-26.7,18.8-29.6,33.1c-5.7,27.5,21.7,54.9,49.2,49.2
		c20.7-4.3,36.7-25.3,34.7-45.2c-1.5-14-12-28.4-25.3-34.9C126.1,586,113.6,585,105.3,587.7L105.3,587.7z M276,587.7
		c-14,4.7-26.7,18.8-29.6,33.1c-5.7,27.5,21.7,54.9,49.2,49.2c20.7-4.3,36.7-25.3,34.7-45.2c-1.5-14-12-28.4-25.3-34.9
		C296.8,586,284.2,585,276,587.7L276,587.7z M446.6,587.7c-14,4.7-26.7,18.8-29.6,33.1c-5.7,27.5,21.7,54.9,49.2,49.2
		c20.7-4.3,36.7-25.3,34.7-45.2c-1.5-14-12-28.4-25.3-34.9C467.4,586,454.9,585,446.6,587.7L446.6,587.7z M617.3,587.7
		c-14,4.7-26.7,18.8-29.6,33.1c-5.7,27.5,21.7,54.9,49.2,49.2c20.7-4.3,36.7-25.3,34.7-45.2c-1.5-14-12-28.4-25.3-34.9
		C638.1,586,625.6,585,617.3,587.7L617.3,587.7z M788,587.7c-14,4.7-26.7,18.8-29.6,33.1c-5.7,27.5,21.7,54.9,49.2,49.2
		c20.7-4.3,36.7-25.3,34.7-45.2c-1.5-14-12-28.4-25.3-34.9C808.8,586,796.2,585,788,587.7L788,587.7z M958.6,587.7
		c-14,4.7-26.7,18.8-29.6,33.1c-5.7,27.5,21.7,54.9,49.2,49.2c20.7-4.3,36.7-25.3,34.7-45.2c-1.5-14-12-28.4-25.3-34.9
		C979.4,586,966.9,585,958.6,587.7L958.6,587.7z M1129.3,587.7c-14,4.7-26.7,18.8-29.6,33.1c-5.7,27.5,21.7,54.9,49.2,49.2
		c20.7-4.3,36.7-25.3,34.7-45.2c-1.5-14-12-28.4-25.3-34.9C1150.1,586,1137.6,585,1129.3,587.7L1129.3,587.7z M1300,587.7
		c-14,4.7-26.7,18.8-29.6,33.1c-5.7,27.5,21.7,54.9,49.2,49.2c20.7-4.3,36.7-25.3,34.7-45.2c-1.5-14-12-28.4-25.3-34.9
		C1320.8,586,1308.2,585,1300,587.7L1300,587.7z M1470.6,587.7c-14,4.7-26.7,18.8-29.6,33.1c-5.7,27.5,21.7,54.9,49.2,49.2
		c20.7-4.3,36.7-25.3,34.7-45.2c-1.5-14-12-28.4-25.3-34.9C1491.4,586,1478.9,585,1470.6,587.7L1470.6,587.7z M1641.3,587.7
		c-14,4.7-26.7,18.8-29.6,33.1c-5.7,27.5,21.7,54.9,49.2,49.2c20.7-4.3,36.7-25.3,34.7-45.2c-1.5-14-12-28.4-25.3-34.9
		C1662.1,586,1649.6,585,1641.3,587.7L1641.3,587.7z M105.3,758.4c-14,4.7-26.7,18.8-29.6,33.1c-5.7,27.5,21.7,54.9,49.2,49.2
		c20.7-4.3,36.7-25.3,34.7-45.2c-1.5-14-12-28.4-25.3-34.9C126.1,756.6,113.6,755.7,105.3,758.4z M276,758.4
		c-14,4.7-26.7,18.8-29.6,33.1c-5.7,27.5,21.7,54.9,49.2,49.2c20.7-4.3,36.7-25.3,34.7-45.2c-1.5-14-12-28.4-25.3-34.9
		C296.8,756.6,284.2,755.7,276,758.4L276,758.4z M446.6,758.4c-14,4.7-26.7,18.8-29.6,33.1c-5.7,27.5,21.7,54.9,49.2,49.2
		c20.7-4.3,36.7-25.3,34.7-45.2c-1.5-14-12-28.4-25.3-34.9C467.4,756.6,454.9,755.7,446.6,758.4L446.6,758.4z M617.3,758.4
		c-14,4.7-26.7,18.8-29.6,33.1c-5.7,27.5,21.7,54.9,49.2,49.2c20.7-4.3,36.7-25.3,34.7-45.2c-1.5-14-12-28.4-25.3-34.9
		C638.1,756.6,625.6,755.7,617.3,758.4L617.3,758.4z M788,758.4c-14,4.7-26.7,18.8-29.6,33.1c-5.7,27.5,21.7,54.9,49.2,49.2
		c20.7-4.3,36.7-25.3,34.7-45.2c-1.5-14-12-28.4-25.3-34.9C808.8,756.6,796.2,755.7,788,758.4z M958.6,758.4
		c-14,4.7-26.7,18.8-29.6,33.1c-5.7,27.5,21.7,54.9,49.2,49.2c20.7-4.3,36.7-25.3,34.7-45.2c-1.5-14-12-28.4-25.3-34.9
		C979.4,756.6,966.9,755.7,958.6,758.4z M1129.3,758.4c-14,4.7-26.7,18.8-29.6,33.1c-5.7,27.5,21.7,54.9,49.2,49.2
		c20.7-4.3,36.7-25.3,34.7-45.2c-1.5-14-12-28.4-25.3-34.9C1150.1,756.6,1137.6,755.7,1129.3,758.4z M1300,758.4
		c-14,4.7-26.7,18.8-29.6,33.1c-5.7,27.5,21.7,54.9,49.2,49.2c20.7-4.3,36.7-25.3,34.7-45.2c-1.5-14-12-28.4-25.3-34.9
		C1320.8,756.6,1308.2,755.7,1300,758.4z M1470.6,758.4c-14,4.7-26.7,18.8-29.6,33.1c-5.7,27.5,21.7,54.9,49.2,49.2
		c20.7-4.3,36.7-25.3,34.7-45.2c-1.5-14-12-28.4-25.3-34.9C1491.4,756.6,1478.9,755.7,1470.6,758.4L1470.6,758.4z M1641.3,758.4
		c-14,4.7-26.7,18.8-29.6,33.1c-5.7,27.5,21.7,54.9,49.2,49.2c20.7-4.3,36.7-25.3,34.7-45.2c-1.5-14-12-28.4-25.3-34.9
		C1662.1,756.6,1649.6,755.7,1641.3,758.4L1641.3,758.4z M105.3,929c-14,4.7-26.7,18.8-29.6,33.1c-5.7,27.5,21.7,54.9,49.2,49.2
		c20.7-4.3,36.7-25.3,34.7-45.2c-1.5-14-12-28.4-25.3-34.9C126.1,927.3,113.6,926.4,105.3,929z M276,929
		c-14,4.7-26.7,18.8-29.6,33.1c-5.7,27.5,21.7,54.9,49.2,49.2c20.7-4.3,36.7-25.3,34.7-45.2c-1.5-14-12-28.4-25.3-34.9
		C296.8,927.3,284.2,926.4,276,929L276,929z M446.6,929c-14,4.7-26.7,18.8-29.6,33.1c-5.7,27.5,21.7,54.9,49.2,49.2
		c20.7-4.3,36.7-25.3,34.7-45.2c-1.5-14-12-28.4-25.3-34.9C467.4,927.3,454.9,926.4,446.6,929L446.6,929z M617.3,929
		c-14,4.7-26.7,18.8-29.6,33.1c-5.7,27.5,21.7,54.9,49.2,49.2c20.7-4.3,36.7-25.3,34.7-45.2c-1.5-14-12-28.4-25.3-34.9
		C638.1,927.3,625.6,926.4,617.3,929L617.3,929z M788,929c-14,4.7-26.7,18.8-29.6,33.1c-5.7,27.5,21.7,54.9,49.2,49.2
		c20.7-4.3,36.7-25.3,34.7-45.2c-1.5-14-12-28.4-25.3-34.9C808.8,927.3,796.2,926.4,788,929z M958.6,929
		c-14,4.7-26.7,18.8-29.6,33.1c-5.7,27.5,21.7,54.9,49.2,49.2c20.7-4.3,36.7-25.3,34.7-45.2c-1.5-14-12-28.4-25.3-34.9
		C979.4,927.3,966.9,926.4,958.6,929z M1129.3,929c-14,4.7-26.7,18.8-29.6,33.1c-5.7,27.5,21.7,54.9,49.2,49.2
		c20.7-4.3,36.7-25.3,34.7-45.2c-1.5-14-12-28.4-25.3-34.9C1150.1,927.3,1137.6,926.4,1129.3,929z M1300,929
		c-14,4.7-26.7,18.8-29.6,33.1c-5.7,27.5,21.7,54.9,49.2,49.2c20.7-4.3,36.7-25.3,34.7-45.2c-1.5-14-12-28.4-25.3-34.9
		C1320.8,927.3,1308.2,926.4,1300,929z M1470.6,929c-14,4.7-26.7,18.8-29.6,33.1c-5.7,27.5,21.7,54.9,49.2,49.2
		c20.7-4.3,36.7-25.3,34.7-45.2c-1.5-14-12-28.4-25.3-34.9C1491.4,927.3,1478.9,926.4,1470.6,929L1470.6,929z M1641.3,929
		c-14,4.7-26.7,18.8-29.6,33.1c-5.7,27.5,21.7,54.9,49.2,49.2c20.7-4.3,36.7-25.3,34.7-45.2c-1.5-14-12-28.4-25.3-34.9
		C1662.1,927.3,1649.6,926.4,1641.3,929L1641.3,929z M105.3,1099.7c-14,4.7-26.7,18.8-29.6,33.1c-5.7,27.5,21.7,54.9,49.2,49.2
		c20.7-4.3,36.7-25.3,34.7-45.2c-1.5-14-12-28.4-25.3-34.9C126.1,1098,113.6,1097,105.3,1099.7z M276,1099.7
		c-14,4.7-26.7,18.8-29.6,33.1c-5.7,27.5,21.7,54.9,49.2,49.2c20.7-4.3,36.7-25.3,34.7-45.2c-1.5-14-12-28.4-25.3-34.9
		C296.8,1098,284.2,1097,276,1099.7L276,1099.7z M446.6,1099.7c-14,4.7-26.7,18.8-29.6,33.1c-3.3,15.6,4.3,32.5,18.9,42.5
		c14.3,9.9,30.5,10,44.9,0.4c23.6-15.7,26.8-45.1,7.1-64.7C476.6,1099.6,460.4,1095.2,446.6,1099.7z M617.3,1099.7
		c-14,4.7-26.7,18.8-29.6,33.1c-3.3,15.6,4.3,32.5,18.9,42.5c14.3,9.9,30.5,10,44.9,0.4c23.6-15.7,26.8-45.1,7.1-64.7
		C647.3,1099.6,631,1095.2,617.3,1099.7z M788,1099.7c-20.1,6.7-33.7,28.8-29.6,48.3c3.3,15.9,18.1,30.7,34,34
		c25.7,5.5,52.5-18.9,49.9-45.2c-1.5-14-12-28.4-25.3-34.9C808.8,1098,796.2,1097,788,1099.7z M958.6,1099.7
		c-20.1,6.7-33.7,28.8-29.6,48.3c3.3,15.9,18.1,30.7,34,34c25.7,5.5,52.5-18.9,49.9-45.2c-1.5-14-12-28.4-25.3-34.9
		C979.4,1098,966.9,1097,958.6,1099.7z M1129.3,1099.7c-20.1,6.7-33.7,28.8-29.6,48.3c3.3,15.9,18.1,30.7,34,34
		c25.7,5.5,52.5-18.9,49.9-45.2c-1.5-14-12-28.4-25.3-34.9C1150.1,1098,1137.6,1097,1129.3,1099.7z M1300,1099.7
		c-20.1,6.7-33.7,28.8-29.6,48.3c3.3,15.9,18.1,30.7,34,34c25.7,5.5,52.5-18.9,49.9-45.2c-1.5-14-12-28.4-25.3-34.9
		C1320.8,1098,1308.2,1097,1300,1099.7z M1470.6,1099.7c-14,4.7-26.7,18.8-29.6,33.1c-5.7,27.5,21.7,54.9,49.2,49.2
		c20.7-4.3,36.7-25.3,34.7-45.2c-1.5-14-12-28.4-25.3-34.9C1491.4,1098,1478.9,1097,1470.6,1099.7L1470.6,1099.7z M1641.3,1099.7
		c-14,4.7-26.7,18.8-29.6,33.1c-5.7,27.5,21.7,54.9,49.2,49.2c20.7-4.3,36.7-25.3,34.7-45.2c-1.5-14-12-28.4-25.3-34.9
		C1662.1,1098,1649.6,1097,1641.3,1099.7L1641.3,1099.7z M105.3,1270.4c-14,4.7-26.7,18.8-29.6,33.1c-5.7,27.5,21.7,54.9,49.2,49.2
		c20.7-4.3,36.7-25.3,34.7-45.2c-1.5-14-12-28.4-25.3-34.9C126.1,1268.6,113.6,1267.7,105.3,1270.4z M276,1270.4
		c-14,4.7-26.7,18.8-29.6,33.1c-5.7,27.5,21.7,54.9,49.2,49.2c20.7-4.3,36.7-25.3,34.7-45.2c-1.5-14-12-28.4-25.3-34.9
		C296.8,1268.6,284.2,1267.7,276,1270.4L276,1270.4z M446.6,1270.4c-14,4.7-26.7,18.8-29.6,33.1c-3.3,15.6,4.3,32.5,18.9,42.5
		c14.3,9.9,30.5,10,44.9,0.4c23.6-15.7,26.8-45.1,7.1-64.7C476.6,1270.2,460.4,1265.8,446.6,1270.4z M617.3,1270.4
		c-14,4.7-26.7,18.8-29.6,33.1c-3.3,15.6,4.3,32.5,18.9,42.5c14.3,9.9,30.5,10,44.9,0.4c23.6-15.7,26.8-45.1,7.1-64.7
		C647.3,1270.2,631,1265.8,617.3,1270.4z M788,1270.4c-20.1,6.7-33.7,28.8-29.6,48.3c3.3,15.9,18.1,30.7,34,34
		c25.7,5.5,52.5-18.9,49.9-45.2c-1.5-14-12-28.4-25.3-34.9C808.8,1268.6,796.2,1267.7,788,1270.4z M958.6,1270.4
		c-20.1,6.7-33.7,28.8-29.6,48.3c3.3,15.9,18.1,30.7,34,34c25.7,5.5,52.5-18.9,49.9-45.2c-1.5-14-12-28.4-25.3-34.9
		C979.4,1268.6,966.9,1267.7,958.6,1270.4z M1129.3,1270.4c-20.1,6.7-33.7,28.8-29.6,48.3c3.3,15.9,18.1,30.7,34,34
		c25.7,5.5,52.5-18.9,49.9-45.2c-1.5-14-12-28.4-25.3-34.9C1150.1,1268.6,1137.6,1267.7,1129.3,1270.4z M1300,1270.4
		c-20.1,6.7-33.7,28.8-29.6,48.3c3.3,15.9,18.1,30.7,34,34c25.7,5.5,52.5-18.9,49.9-45.2c-1.5-14-12-28.4-25.3-34.9
		C1320.8,1268.6,1308.2,1267.7,1300,1270.4z M1470.6,1270.4c-14,4.7-26.7,18.8-29.6,33.1c-5.7,27.5,21.7,54.9,49.2,49.2
		c20.7-4.3,36.7-25.3,34.7-45.2c-1.5-14-12-28.4-25.3-34.9C1491.4,1268.6,1478.9,1267.7,1470.6,1270.4L1470.6,1270.4z
		 M1641.3,1270.4c-14,4.7-26.7,18.8-29.6,33.1c-5.7,27.5,21.7,54.9,49.2,49.2c20.7-4.3,36.7-25.3,34.7-45.2
		c-1.5-14-12-28.4-25.3-34.9C1662.1,1268.6,1649.6,1267.7,1641.3,1270.4L1641.3,1270.4z M105.3,1441c-14,4.7-26.7,18.8-29.6,33.1
		c-5.7,27.5,21.7,54.9,49.2,49.2c20.7-4.3,36.7-25.3,34.7-45.2c-1.5-14-12-28.4-25.3-34.9C126.1,1439.3,113.6,1438.4,105.3,1441
		L105.3,1441z M276,1441c-14,4.7-26.7,18.8-29.6,33.1c-5.7,27.5,21.7,54.9,49.2,49.2c20.7-4.3,36.7-25.3,34.7-45.2
		c-1.5-14-12-28.4-25.3-34.9C296.8,1439.3,284.2,1438.4,276,1441L276,1441z M446.6,1441c-14,4.7-26.7,18.8-29.6,33.1
		c-3.3,15.6,4.3,32.5,18.9,42.5c14.3,9.9,30.5,10,44.9,0.4c23.6-15.7,26.8-45.1,7.1-64.7C476.6,1440.9,460.4,1436.5,446.6,1441
		L446.6,1441z M617.3,1441c-14,4.7-26.7,18.8-29.6,33.1c-3.3,15.6,4.3,32.5,18.9,42.5c14.3,9.9,30.5,10,44.9,0.4
		c23.6-15.7,26.8-45.1,7.1-64.7C647.3,1440.9,631,1436.5,617.3,1441L617.3,1441z M788,1441c-14,4.7-26.7,18.8-29.6,33.1
		c-5.7,27.5,21.7,54.9,49.2,49.2c20.7-4.3,36.7-25.3,34.7-45.2c-1.5-14-12-28.4-25.3-34.9C808.8,1439.3,796.2,1438.4,788,1441
		L788,1441z M958.6,1441c-14,4.7-26.7,18.8-29.6,33.1c-5.7,27.5,21.7,54.9,49.2,49.2c20.7-4.3,36.7-25.3,34.7-45.2
		c-1.5-14-12-28.4-25.3-34.9C979.4,1439.3,966.9,1438.4,958.6,1441L958.6,1441z M1129.3,1441c-14,4.7-26.7,18.8-29.6,33.1
		c-5.7,27.5,21.7,54.9,49.2,49.2c20.7-4.3,36.7-25.3,34.7-45.2c-1.5-14-12-28.4-25.3-34.9C1150.1,1439.3,1137.6,1438.4,1129.3,1441
		L1129.3,1441z M1300,1441c-14,4.7-26.7,18.8-29.6,33.1c-5.7,27.5,21.7,54.9,49.2,49.2c20.7-4.3,36.7-25.3,34.7-45.2
		c-1.5-14-12-28.4-25.3-34.9C1320.8,1439.3,1308.2,1438.4,1300,1441L1300,1441z M1470.6,1441c-14,4.7-26.7,18.8-29.6,33.1
		c-5.7,27.5,21.7,54.9,49.2,49.2c20.7-4.3,36.7-25.3,34.7-45.2c-1.5-14-12-28.4-25.3-34.9C1491.4,1439.3,1478.9,1438.4,1470.6,1441
		L1470.6,1441z M1641.3,1441c-14,4.7-26.7,18.8-29.6,33.1c-5.7,27.5,21.7,54.9,49.2,49.2c20.7-4.3,36.7-25.3,34.7-45.2
		c-1.5-14-12-28.4-25.3-34.9C1662.1,1439.3,1649.6,1438.4,1641.3,1441L1641.3,1441z M105.3,1611.7c-14,4.7-26.7,18.8-29.6,33.1
		c-5.7,27.5,21.7,54.9,49.2,49.2c20.7-4.3,36.7-25.3,34.7-45.2c-1.5-14-12-28.4-25.3-34.9C126.1,1610,113.6,1609,105.3,1611.7
		L105.3,1611.7z M276,1611.7c-14,4.7-26.7,18.8-29.6,33.1c-5.7,27.5,21.7,54.9,49.2,49.2c20.7-4.3,36.7-25.3,34.7-45.2
		c-1.5-14-12-28.4-25.3-34.9C296.8,1610,284.2,1609,276,1611.7L276,1611.7z M446.6,1611.7c-14,4.7-26.7,18.8-29.6,33.1
		c-5.7,27.5,21.7,54.9,49.2,49.2c20.7-4.3,36.7-25.3,34.7-45.2c-1.5-14-12-28.4-25.3-34.9C467.4,1610,454.9,1609,446.6,1611.7
		L446.6,1611.7z M617.3,1611.7c-14,4.7-26.7,18.8-29.6,33.1c-5.7,27.5,21.7,54.9,49.2,49.2c20.7-4.3,36.7-25.3,34.7-45.2
		c-1.5-14-12-28.4-25.3-34.9C638.1,1610,625.6,1609,617.3,1611.7L617.3,1611.7z M788,1611.7c-14,4.7-26.7,18.8-29.6,33.1
		c-5.7,27.5,21.7,54.9,49.2,49.2c20.7-4.3,36.7-25.3,34.7-45.2c-1.5-14-12-28.4-25.3-34.9C808.8,1610,796.2,1609,788,1611.7
		L788,1611.7z M958.6,1611.7c-14,4.7-26.7,18.8-29.6,33.1c-5.7,27.5,21.7,54.9,49.2,49.2c20.7-4.3,36.7-25.3,34.7-45.2
		c-1.5-14-12-28.4-25.3-34.9C979.4,1610,966.9,1609,958.6,1611.7L958.6,1611.7z M1129.3,1611.7c-14,4.7-26.7,18.8-29.6,33.1
		c-5.7,27.5,21.7,54.9,49.2,49.2c20.7-4.3,36.7-25.3,34.7-45.2c-1.5-14-12-28.4-25.3-34.9C1150.1,1610,1137.6,1609,1129.3,1611.7
		L1129.3,1611.7z M1300,1611.7c-14,4.7-26.7,18.8-29.6,33.1c-5.7,27.5,21.7,54.9,49.2,49.2c20.7-4.3,36.7-25.3,34.7-45.2
		c-1.5-14-12-28.4-25.3-34.9C1320.8,1610,1308.2,1609,1300,1611.7L1300,1611.7z M1470.6,1611.7c-14,4.7-26.7,18.8-29.6,33.1
		c-5.7,27.5,21.7,54.9,49.2,49.2c20.7-4.3,36.7-25.3,34.7-45.2c-1.5-14-12-28.4-25.3-34.9C1491.4,1610,1478.9,1609,1470.6,1611.7
		L1470.6,1611.7z M1641.3,1611.7c-14,4.7-26.7,18.8-29.6,33.1c-5.7,27.5,21.7,54.9,49.2,49.2c20.7-4.3,36.7-25.3,34.7-45.2
		c-1.5-14-12-28.4-25.3-34.9C1662.1,1610,1649.6,1609,1641.3,1611.7L1641.3,1611.7z"/>
</g>
<g id="Layer_1">
	<path class="st0" d="M73.3,44.7c-14,4.7-26.7,18.8-29.6,33.1c-5.7,27.5,21.7,54.9,49.2,49.2c20.7-4.3,36.7-25.3,34.7-45.2
		c-1.5-14-12-28.4-25.3-34.9C94.1,42.9,81.6,42,73.3,44.7z M244,44.7c-20.1,6.7-33.7,28.8-29.6,48.3c3.3,15.9,18.1,30.7,33.9,34
		c25.9,5.5,52.7-18.9,50-45.2c-1.5-14-12-28.4-25.3-34.9C264.8,42.9,252.3,42,244,44.7z M414.7,44.7c-14,4.7-26.7,18.8-29.6,33.1
		c-5.7,27.5,21.7,54.9,49.2,49.2c20.7-4.3,36.7-25.3,34.7-45.2c-1.5-14-12-28.4-25.3-34.9C435.5,42.9,422.9,42,414.7,44.7
		L414.7,44.7z M585.3,44.7c-14,4.7-26.7,18.8-29.6,33.1c-5.7,27.5,21.7,54.9,49.2,49.2c20.7-4.3,36.7-25.3,34.7-45.2
		c-1.5-14-12-28.4-25.3-34.9C606.1,42.9,593.6,42,585.3,44.7L585.3,44.7z M756,44.7c-14,4.7-26.7,18.8-29.6,33.1
		c-5.7,27.5,21.7,54.9,49.2,49.2c20.7-4.3,36.7-25.3,34.7-45.2c-1.5-14-12-28.4-25.3-34.9C776.8,42.9,764.3,42,756,44.7z
		 M926.7,44.7c-14,4.7-26.7,18.8-29.6,33.1c-5.7,27.5,21.7,54.9,49.2,49.2c20.7-4.3,36.7-25.3,34.7-45.2c-1.5-14-12-28.4-25.3-34.9
		C947.5,42.9,934.9,42,926.7,44.7z M1097.3,44.7c-14,4.7-26.7,18.8-29.6,33.1c-5.7,27.5,21.7,54.9,49.2,49.2
		c20.7-4.3,36.7-25.3,34.7-45.2c-1.5-14-12-28.4-25.3-34.9C1118.1,42.9,1105.6,42,1097.3,44.7z M1268,44.7
		c-14,4.7-26.7,18.8-29.6,33.1c-5.7,27.5,21.7,54.9,49.2,49.2c20.7-4.3,36.7-25.3,34.7-45.2c-1.5-14-12-28.4-25.3-34.9
		C1288.8,42.9,1276.3,42,1268,44.7z M1438.7,44.7c-14,4.7-26.7,18.8-29.6,33.1c-3.3,15.6,4.3,32.5,18.9,42.5
		c14.3,9.9,30.5,10,44.9,0.4c23.6-15.7,26.8-45.1,7.1-64.7C1468.7,44.5,1452.4,40.1,1438.7,44.7z M1609.3,44.7
		c-14,4.7-26.7,18.8-29.6,33.1c-3.3,15.6,4.3,32.5,18.9,42.5c14.3,9.9,30.5,10,44.9,0.4c23.6-15.7,26.8-45.1,7.1-64.7
		C1639.3,44.5,1623.1,40.1,1609.3,44.7z M73.3,215.3c-14,4.7-26.7,18.8-29.6,33.1c-5.7,27.5,21.7,54.9,49.2,49.2
		c20.7-4.3,36.7-25.3,34.7-45.2c-1.5-14-12-28.4-25.3-34.9C94.1,213.6,81.6,212.7,73.3,215.3L73.3,215.3z M244,215.3
		c-20.1,6.7-33.7,28.8-29.6,48.3c3.3,15.9,18.1,30.7,33.9,34c25.9,5.5,52.7-18.9,50-45.2c-1.5-14-12-28.4-25.3-34.9
		C264.8,213.6,252.3,212.7,244,215.3L244,215.3z M414.7,215.3c-14,4.7-26.7,18.8-29.6,33.1c-5.7,27.5,21.7,54.9,49.2,49.2
		c20.7-4.3,36.7-25.3,34.7-45.2c-1.5-14-12-28.4-25.3-34.9C435.5,213.6,422.9,212.7,414.7,215.3L414.7,215.3z M585.3,215.3
		c-14,4.7-26.7,18.8-29.6,33.1c-5.7,27.5,21.7,54.9,49.2,49.2c20.7-4.3,36.7-25.3,34.7-45.2c-1.5-14-12-28.4-25.3-34.9
		C606.1,213.6,593.6,212.7,585.3,215.3L585.3,215.3z M756,215.3c-14,4.7-26.7,18.8-29.6,33.1c-5.7,27.5,21.7,54.9,49.2,49.2
		c20.7-4.3,36.7-25.3,34.7-45.2c-1.5-14-12-28.4-25.3-34.9C776.8,213.6,764.3,212.7,756,215.3L756,215.3z M926.7,215.3
		c-14,4.7-26.7,18.8-29.6,33.1c-5.7,27.5,21.7,54.9,49.2,49.2c20.7-4.3,36.7-25.3,34.7-45.2c-1.5-14-12-28.4-25.3-34.9
		C947.5,213.6,934.9,212.7,926.7,215.3L926.7,215.3z M1097.3,215.3c-14,4.7-26.7,18.8-29.6,33.1c-5.7,27.5,21.7,54.9,49.2,49.2
		c20.7-4.3,36.7-25.3,34.7-45.2c-1.5-14-12-28.4-25.3-34.9C1118.1,213.6,1105.6,212.7,1097.3,215.3L1097.3,215.3z M1268,215.3
		c-14,4.7-26.7,18.8-29.6,33.1c-5.7,27.5,21.7,54.9,49.2,49.2c20.7-4.3,36.7-25.3,34.7-45.2c-1.5-14-12-28.4-25.3-34.9
		C1288.8,213.6,1276.3,212.7,1268,215.3L1268,215.3z M1438.7,215.3c-14,4.7-26.7,18.8-29.6,33.1c-3.3,15.6,4.3,32.5,18.9,42.5
		c14.3,9.9,30.5,10,44.9,0.4c23.6-15.7,26.8-45.1,7.1-64.7C1468.7,215.2,1452.4,210.8,1438.7,215.3z M1609.3,215.3
		c-14,4.7-26.7,18.8-29.6,33.1c-3.3,15.6,4.3,32.5,18.9,42.5c14.3,9.9,30.5,10,44.9,0.4c23.6-15.7,26.8-45.1,7.1-64.7
		C1639.3,215.2,1623.1,210.8,1609.3,215.3z M73.3,386c-14,4.7-26.7,18.8-29.6,33.1C38,446.5,65.5,474,92.9,468.3
		c20.7-4.3,36.7-25.3,34.7-45.2c-1.5-14-12-28.4-25.3-34.9C94.1,384.3,81.6,383.3,73.3,386L73.3,386z M244,386
		c-14,4.7-26.7,18.8-29.6,33.1c-5.7,27.5,21.7,54.9,49.2,49.2c20.7-4.3,36.7-25.3,34.7-45.2c-1.5-14-12-28.4-25.3-34.9
		C264.8,384.3,252.3,383.3,244,386L244,386z M414.7,386c-14,4.7-26.7,18.8-29.6,33.1c-5.7,27.5,21.7,54.9,49.2,49.2
		c20.7-4.3,36.7-25.3,34.7-45.2c-1.5-14-12-28.4-25.3-34.9C435.5,384.3,422.9,383.3,414.7,386L414.7,386z M585.3,386
		c-14,4.7-26.7,18.8-29.6,33.1c-5.7,27.5,21.7,54.9,49.2,49.2c20.7-4.3,36.7-25.3,34.7-45.2c-1.5-14-12-28.4-25.3-34.9
		C606.1,384.3,593.6,383.3,585.3,386L585.3,386z M756,386c-14,4.7-26.7,18.8-29.6,33.1c-5.7,27.5,21.7,54.9,49.2,49.2
		c20.7-4.3,36.7-25.3,34.7-45.2c-1.5-14-12-28.4-25.3-34.9C776.8,384.3,764.3,383.3,756,386L756,386z M926.7,386
		c-14,4.7-26.7,18.8-29.6,33.1c-5.7,27.5,21.7,54.9,49.2,49.2c20.7-4.3,36.7-25.3,34.7-45.2c-1.5-14-12-28.4-25.3-34.9
		C947.5,384.3,934.9,383.3,926.7,386L926.7,386z M1097.3,386c-14,4.7-26.7,18.8-29.6,33.1c-5.7,27.5,21.7,54.9,49.2,49.2
		c20.7-4.3,36.7-25.3,34.7-45.2c-1.5-14-12-28.4-25.3-34.9C1118.1,384.3,1105.6,383.3,1097.3,386L1097.3,386z M1268,386
		c-14,4.7-26.7,18.8-29.6,33.1c-5.7,27.5,21.7,54.9,49.2,49.2c20.7-4.3,36.7-25.3,34.7-45.2c-1.5-14-12-28.4-25.3-34.9
		C1288.8,384.3,1276.3,383.3,1268,386L1268,386z M1438.7,386c-14,4.7-26.7,18.8-29.6,33.1c-5.7,27.5,21.7,54.9,49.2,49.2
		c20.7-4.3,36.7-25.3,34.7-45.2c-1.5-14-12-28.4-25.3-34.9C1459.5,384.3,1446.9,383.3,1438.7,386L1438.7,386z M1609.3,386
		c-14,4.7-26.7,18.8-29.6,33.1c-5.7,27.5,21.7,54.9,49.2,49.2c20.7-4.3,36.7-25.3,34.7-45.2c-1.5-14-12-28.4-25.3-34.9
		C1630.1,384.3,1617.6,383.3,1609.3,386L1609.3,386z M73.3,556.7c-14,4.7-26.7,18.8-29.6,33.1c-5.7,27.5,21.7,54.9,49.2,49.2
		c20.7-4.3,36.7-25.3,34.7-45.2c-1.5-14-12-28.4-25.3-34.9C94.1,554.9,81.6,554,73.3,556.7L73.3,556.7z M244,556.7
		c-14,4.7-26.7,18.8-29.6,33.1c-5.7,27.5,21.7,54.9,49.2,49.2c20.7-4.3,36.7-25.3,34.7-45.2c-1.5-14-12-28.4-25.3-34.9
		C264.8,554.9,252.3,554,244,556.7L244,556.7z M414.7,556.7c-14,4.7-26.7,18.8-29.6,33.1c-5.7,27.5,21.7,54.9,49.2,49.2
		c20.7-4.3,36.7-25.3,34.7-45.2c-1.5-14-12-28.4-25.3-34.9C435.5,554.9,422.9,554,414.7,556.7L414.7,556.7z M585.3,556.7
		c-14,4.7-26.7,18.8-29.6,33.1c-5.7,27.5,21.7,54.9,49.2,49.2c20.7-4.3,36.7-25.3,34.7-45.2c-1.5-14-12-28.4-25.3-34.9
		C606.1,554.9,593.6,554,585.3,556.7L585.3,556.7z M756,556.7c-14,4.7-26.7,18.8-29.6,33.1c-5.7,27.5,21.7,54.9,49.2,49.2
		c20.7-4.3,36.7-25.3,34.7-45.2c-1.5-14-12-28.4-25.3-34.9C776.8,554.9,764.3,554,756,556.7L756,556.7z M926.7,556.7
		c-14,4.7-26.7,18.8-29.6,33.1c-5.7,27.5,21.7,54.9,49.2,49.2c20.7-4.3,36.7-25.3,34.7-45.2c-1.5-14-12-28.4-25.3-34.9
		C947.5,554.9,934.9,554,926.7,556.7L926.7,556.7z M1097.3,556.7c-14,4.7-26.7,18.8-29.6,33.1c-5.7,27.5,21.7,54.9,49.2,49.2
		c20.7-4.3,36.7-25.3,34.7-45.2c-1.5-14-12-28.4-25.3-34.9C1118.1,554.9,1105.6,554,1097.3,556.7L1097.3,556.7z M1268,556.7
		c-14,4.7-26.7,18.8-29.6,33.1c-5.7,27.5,21.7,54.9,49.2,49.2c20.7-4.3,36.7-25.3,34.7-45.2c-1.5-14-12-28.4-25.3-34.9
		C1288.8,554.9,1276.3,554,1268,556.7L1268,556.7z M1438.7,556.7c-14,4.7-26.7,18.8-29.6,33.1c-5.7,27.5,21.7,54.9,49.2,49.2
		c20.7-4.3,36.7-25.3,34.7-45.2c-1.5-14-12-28.4-25.3-34.9C1459.5,554.9,1446.9,554,1438.7,556.7L1438.7,556.7z M1609.3,556.7
		c-14,4.7-26.7,18.8-29.6,33.1c-5.7,27.5,21.7,54.9,49.2,49.2c20.7-4.3,36.7-25.3,34.7-45.2c-1.5-14-12-28.4-25.3-34.9
		C1630.1,554.9,1617.6,554,1609.3,556.7L1609.3,556.7z M73.3,727.3c-14,4.7-26.7,18.8-29.6,33.1c-5.7,27.5,21.7,54.9,49.2,49.2
		c20.7-4.3,36.7-25.3,34.7-45.2c-1.5-14-12-28.4-25.3-34.9C94.1,725.6,81.6,724.7,73.3,727.3z M244,727.3
		c-14,4.7-26.7,18.8-29.6,33.1c-5.7,27.5,21.7,54.9,49.2,49.2c20.7-4.3,36.7-25.3,34.7-45.2c-1.5-14-12-28.4-25.3-34.9
		C264.8,725.6,252.3,724.7,244,727.3L244,727.3z M414.7,727.3c-14,4.7-26.7,18.8-29.6,33.1c-5.7,27.5,21.7,54.9,49.2,49.2
		c20.7-4.3,36.7-25.3,34.7-45.2c-1.5-14-12-28.4-25.3-34.9C435.5,725.6,422.9,724.7,414.7,727.3L414.7,727.3z M585.3,727.3
		c-14,4.7-26.7,18.8-29.6,33.1c-5.7,27.5,21.7,54.9,49.2,49.2c20.7-4.3,36.7-25.3,34.7-45.2c-1.5-14-12-28.4-25.3-34.9
		C606.1,725.6,593.6,724.7,585.3,727.3L585.3,727.3z M756,727.3c-14,4.7-26.7,18.8-29.6,33.1c-5.7,27.5,21.7,54.9,49.2,49.2
		c20.7-4.3,36.7-25.3,34.7-45.2c-1.5-14-12-28.4-25.3-34.9C776.8,725.6,764.3,724.7,756,727.3z M926.7,727.3
		c-14,4.7-26.7,18.8-29.6,33.1c-5.7,27.5,21.7,54.9,49.2,49.2c20.7-4.3,36.7-25.3,34.7-45.2c-1.5-14-12-28.4-25.3-34.9
		C947.5,725.6,934.9,724.7,926.7,727.3z M1097.3,727.3c-14,4.7-26.7,18.8-29.6,33.1c-5.7,27.5,21.7,54.9,49.2,49.2
		c20.7-4.3,36.7-25.3,34.7-45.2c-1.5-14-12-28.4-25.3-34.9C1118.1,725.6,1105.6,724.7,1097.3,727.3z M1268,727.3
		c-14,4.7-26.7,18.8-29.6,33.1c-5.7,27.5,21.7,54.9,49.2,49.2c20.7-4.3,36.7-25.3,34.7-45.2c-1.5-14-12-28.4-25.3-34.9
		C1288.8,725.6,1276.3,724.7,1268,727.3z M1438.7,727.3c-14,4.7-26.7,18.8-29.6,33.1c-5.7,27.5,21.7,54.9,49.2,49.2
		c20.7-4.3,36.7-25.3,34.7-45.2c-1.5-14-12-28.4-25.3-34.9C1459.5,725.6,1446.9,724.7,1438.7,727.3L1438.7,727.3z M1609.3,727.3
		c-14,4.7-26.7,18.8-29.6,33.1c-5.7,27.5,21.7,54.9,49.2,49.2c20.7-4.3,36.7-25.3,34.7-45.2c-1.5-14-12-28.4-25.3-34.9
		C1630.1,725.6,1617.6,724.7,1609.3,727.3L1609.3,727.3z M73.3,898c-14,4.7-26.7,18.8-29.6,33.1C38,958.5,65.5,986,92.9,980.3
		c20.7-4.3,36.7-25.3,34.7-45.2c-1.5-14-12-28.4-25.3-34.9C94.1,896.3,81.6,895.3,73.3,898z M244,898c-14,4.7-26.7,18.8-29.6,33.1
		c-5.7,27.5,21.7,54.9,49.2,49.2c20.7-4.3,36.7-25.3,34.7-45.2c-1.5-14-12-28.4-25.3-34.9C264.8,896.3,252.3,895.3,244,898L244,898z
		 M414.7,898c-14,4.7-26.7,18.8-29.6,33.1c-5.7,27.5,21.7,54.9,49.2,49.2c20.7-4.3,36.7-25.3,34.7-45.2c-1.5-14-12-28.4-25.3-34.9
		C435.5,896.3,422.9,895.3,414.7,898L414.7,898z M585.3,898c-14,4.7-26.7,18.8-29.6,33.1c-5.7,27.5,21.7,54.9,49.2,49.2
		c20.7-4.3,36.7-25.3,34.7-45.2c-1.5-14-12-28.4-25.3-34.9C606.1,896.3,593.6,895.3,585.3,898L585.3,898z M756,898
		c-14,4.7-26.7,18.8-29.6,33.1c-5.7,27.5,21.7,54.9,49.2,49.2c20.7-4.3,36.7-25.3,34.7-45.2c-1.5-14-12-28.4-25.3-34.9
		C776.8,896.3,764.3,895.3,756,898z M926.7,898c-14,4.7-26.7,18.8-29.6,33.1c-5.7,27.5,21.7,54.9,49.2,49.2
		c20.7-4.3,36.7-25.3,34.7-45.2c-1.5-14-12-28.4-25.3-34.9C947.5,896.3,934.9,895.3,926.7,898z M1097.3,898
		c-14,4.7-26.7,18.8-29.6,33.1c-5.7,27.5,21.7,54.9,49.2,49.2c20.7-4.3,36.7-25.3,34.7-45.2c-1.5-14-12-28.4-25.3-34.9
		C1118.1,896.3,1105.6,895.3,1097.3,898z M1268,898c-14,4.7-26.7,18.8-29.6,33.1c-5.7,27.5,21.7,54.9,49.2,49.2
		c20.7-4.3,36.7-25.3,34.7-45.2c-1.5-14-12-28.4-25.3-34.9C1288.8,896.3,1276.3,895.3,1268,898z M1438.7,898
		c-14,4.7-26.7,18.8-29.6,33.1c-5.7,27.5,21.7,54.9,49.2,49.2c20.7-4.3,36.7-25.3,34.7-45.2c-1.5-14-12-28.4-25.3-34.9
		C1459.5,896.3,1446.9,895.3,1438.7,898L1438.7,898z M1609.3,898c-14,4.7-26.7,18.8-29.6,33.1c-5.7,27.5,21.7,54.9,49.2,49.2
		c20.7-4.3,36.7-25.3,34.7-45.2c-1.5-14-12-28.4-25.3-34.9C1630.1,896.3,1617.6,895.3,1609.3,898L1609.3,898z M73.3,1068.7
		c-14,4.7-26.7,18.8-29.6,33.1c-5.7,27.5,21.7,54.9,49.2,49.2c20.7-4.3,36.7-25.3,34.7-45.2c-1.5-14-12-28.4-25.3-34.9
		C94.1,1066.9,81.6,1066,73.3,1068.7z M244,1068.7c-14,4.7-26.7,18.8-29.6,33.1c-5.7,27.5,21.7,54.9,49.2,49.2
		c20.7-4.3,36.7-25.3,34.7-45.2c-1.5-14-12-28.4-25.3-34.9C264.8,1066.9,252.3,1066,244,1068.7L244,1068.7z M414.7,1068.7
		c-14,4.7-26.7,18.8-29.6,33.1c-3.3,15.6,4.3,32.5,18.9,42.5c14.3,9.9,30.5,10,44.9,0.4c23.6-15.7,26.8-45.1,7.1-64.7
		C444.7,1068.5,428.4,1064.1,414.7,1068.7z M585.3,1068.7c-14,4.7-26.7,18.8-29.6,33.1c-3.3,15.6,4.3,32.5,18.9,42.5
		c14.3,9.9,30.5,10,44.9,0.4c23.6-15.7,26.8-45.1,7.1-64.7C615.3,1068.5,599.1,1064.1,585.3,1068.7z M756,1068.7
		c-20.1,6.7-33.7,28.8-29.6,48.3c3.3,15.9,18.1,30.7,34,34c25.7,5.5,52.5-18.9,49.9-45.2c-1.5-14-12-28.4-25.3-34.9
		C776.8,1066.9,764.3,1066,756,1068.7z M926.7,1068.7c-20.1,6.7-33.7,28.8-29.6,48.3c3.3,15.9,18.1,30.7,34,34
		c25.7,5.5,52.5-18.9,49.9-45.2c-1.5-14-12-28.4-25.3-34.9C947.5,1066.9,934.9,1066,926.7,1068.7z M1097.3,1068.7
		c-20.1,6.7-33.7,28.8-29.6,48.3c3.3,15.9,18.1,30.7,34,34c25.7,5.5,52.5-18.9,49.9-45.2c-1.5-14-12-28.4-25.3-34.9
		C1118.1,1066.9,1105.6,1066,1097.3,1068.7z M1268,1068.7c-20.1,6.7-33.7,28.8-29.6,48.3c3.3,15.9,18.1,30.7,34,34
		c25.7,5.5,52.5-18.9,49.9-45.2c-1.5-14-12-28.4-25.3-34.9C1288.8,1066.9,1276.3,1066,1268,1068.7z M1438.7,1068.7
		c-14,4.7-26.7,18.8-29.6,33.1c-5.7,27.5,21.7,54.9,49.2,49.2c20.7-4.3,36.7-25.3,34.7-45.2c-1.5-14-12-28.4-25.3-34.9
		C1459.5,1066.9,1446.9,1066,1438.7,1068.7L1438.7,1068.7z M1609.3,1068.7c-14,4.7-26.7,18.8-29.6,33.1
		c-5.7,27.5,21.7,54.9,49.2,49.2c20.7-4.3,36.7-25.3,34.7-45.2c-1.5-14-12-28.4-25.3-34.9C1630.1,1066.9,1617.6,1066,1609.3,1068.7
		L1609.3,1068.7z M73.3,1239.3c-14,4.7-26.7,18.8-29.6,33.1c-5.7,27.5,21.7,54.9,49.2,49.2c20.7-4.3,36.7-25.3,34.7-45.2
		c-1.5-14-12-28.4-25.3-34.9C94.1,1237.6,81.6,1236.7,73.3,1239.3z M244,1239.3c-14,4.7-26.7,18.8-29.6,33.1
		c-5.7,27.5,21.7,54.9,49.2,49.2c20.7-4.3,36.7-25.3,34.7-45.2c-1.5-14-12-28.4-25.3-34.9C264.8,1237.6,252.3,1236.7,244,1239.3
		L244,1239.3z M414.7,1239.3c-14,4.7-26.7,18.8-29.6,33.1c-3.3,15.6,4.3,32.5,18.9,42.5c14.3,9.9,30.5,10,44.9,0.4
		c23.6-15.7,26.8-45.1,7.1-64.7C444.7,1239.2,428.4,1234.8,414.7,1239.3z M585.3,1239.3c-14,4.7-26.7,18.8-29.6,33.1
		c-3.3,15.6,4.3,32.5,18.9,42.5c14.3,9.9,30.5,10,44.9,0.4c23.6-15.7,26.8-45.1,7.1-64.7C615.3,1239.2,599.1,1234.8,585.3,1239.3z
		 M756,1239.3c-20.1,6.7-33.7,28.8-29.6,48.3c3.3,15.9,18.1,30.7,34,34c25.7,5.5,52.5-18.9,49.9-45.2c-1.5-14-12-28.4-25.3-34.9
		C776.8,1237.6,764.3,1236.7,756,1239.3z M926.7,1239.3c-20.1,6.7-33.7,28.8-29.6,48.3c3.3,15.9,18.1,30.7,34,34
		c25.7,5.5,52.5-18.9,49.9-45.2c-1.5-14-12-28.4-25.3-34.9C947.5,1237.6,934.9,1236.7,926.7,1239.3z M1097.3,1239.3
		c-20.1,6.7-33.7,28.8-29.6,48.3c3.3,15.9,18.1,30.7,34,34c25.7,5.5,52.5-18.9,49.9-45.2c-1.5-14-12-28.4-25.3-34.9
		C1118.1,1237.6,1105.6,1236.7,1097.3,1239.3z M1268,1239.3c-20.1,6.7-33.7,28.8-29.6,48.3c3.3,15.9,18.1,30.7,34,34
		c25.7,5.5,52.5-18.9,49.9-45.2c-1.5-14-12-28.4-25.3-34.9C1288.8,1237.6,1276.3,1236.7,1268,1239.3z M1438.7,1239.3
		c-14,4.7-26.7,18.8-29.6,33.1c-5.7,27.5,21.7,54.9,49.2,49.2c20.7-4.3,36.7-25.3,34.7-45.2c-1.5-14-12-28.4-25.3-34.9
		C1459.5,1237.6,1446.9,1236.7,1438.7,1239.3L1438.7,1239.3z M1609.3,1239.3c-14,4.7-26.7,18.8-29.6,33.1
		c-5.7,27.5,21.7,54.9,49.2,49.2c20.7-4.3,36.7-25.3,34.7-45.2c-1.5-14-12-28.4-25.3-34.9
		C1630.1,1237.6,1617.6,1236.7,1609.3,1239.3L1609.3,1239.3z M73.3,1410c-14,4.7-26.7,18.8-29.6,33.1c-5.7,27.5,21.7,54.9,49.2,49.2
		c20.7-4.3,36.7-25.3,34.7-45.2c-1.5-14-12-28.4-25.3-34.9C94.1,1408.3,81.6,1407.3,73.3,1410L73.3,1410z M244,1410
		c-14,4.7-26.7,18.8-29.6,33.1c-5.7,27.5,21.7,54.9,49.2,49.2c20.7-4.3,36.7-25.3,34.7-45.2c-1.5-14-12-28.4-25.3-34.9
		C264.8,1408.3,252.3,1407.3,244,1410L244,1410z M414.7,1410c-14,4.7-26.7,18.8-29.6,33.1c-3.3,15.6,4.3,32.5,18.9,42.5
		c14.3,9.9,30.5,10,44.9,0.4c23.6-15.7,26.8-45.1,7.1-64.7C444.7,1409.9,428.4,1405.5,414.7,1410L414.7,1410z M585.3,1410
		c-14,4.7-26.7,18.8-29.6,33.1c-3.3,15.6,4.3,32.5,18.9,42.5c14.3,9.9,30.5,10,44.9,0.4c23.6-15.7,26.8-45.1,7.1-64.7
		C615.3,1409.9,599.1,1405.5,585.3,1410L585.3,1410z M756,1410c-14,4.7-26.7,18.8-29.6,33.1c-5.7,27.5,21.7,54.9,49.2,49.2
		c20.7-4.3,36.7-25.3,34.7-45.2c-1.5-14-12-28.4-25.3-34.9C776.8,1408.3,764.3,1407.3,756,1410L756,1410z M926.7,1410
		c-14,4.7-26.7,18.8-29.6,33.1c-5.7,27.5,21.7,54.9,49.2,49.2c20.7-4.3,36.7-25.3,34.7-45.2c-1.5-14-12-28.4-25.3-34.9
		C947.5,1408.3,934.9,1407.3,926.7,1410L926.7,1410z M1097.3,1410c-14,4.7-26.7,18.8-29.6,33.1c-5.7,27.5,21.7,54.9,49.2,49.2
		c20.7-4.3,36.7-25.3,34.7-45.2c-1.5-14-12-28.4-25.3-34.9C1118.1,1408.3,1105.6,1407.3,1097.3,1410L1097.3,1410z M1268,1410
		c-14,4.7-26.7,18.8-29.6,33.1c-5.7,27.5,21.7,54.9,49.2,49.2c20.7-4.3,36.7-25.3,34.7-45.2c-1.5-14-12-28.4-25.3-34.9
		C1288.8,1408.3,1276.3,1407.3,1268,1410L1268,1410z M1438.7,1410c-14,4.7-26.7,18.8-29.6,33.1c-5.7,27.5,21.7,54.9,49.2,49.2
		c20.7-4.3,36.7-25.3,34.7-45.2c-1.5-14-12-28.4-25.3-34.9C1459.5,1408.3,1446.9,1407.3,1438.7,1410L1438.7,1410z M1609.3,1410
		c-14,4.7-26.7,18.8-29.6,33.1c-5.7,27.5,21.7,54.9,49.2,49.2c20.7-4.3,36.7-25.3,34.7-45.2c-1.5-14-12-28.4-25.3-34.9
		C1630.1,1408.3,1617.6,1407.3,1609.3,1410L1609.3,1410z M73.3,1580.7c-14,4.7-26.7,18.8-29.6,33.1c-5.7,27.5,21.7,54.9,49.2,49.2
		c20.7-4.3,36.7-25.3,34.7-45.2c-1.5-14-12-28.4-25.3-34.9C94.1,1578.9,81.6,1578,73.3,1580.7L73.3,1580.7z M244,1580.7
		c-14,4.7-26.7,18.8-29.6,33.1c-5.7,27.5,21.7,54.9,49.2,49.2c20.7-4.3,36.7-25.3,34.7-45.2c-1.5-14-12-28.4-25.3-34.9
		C264.8,1578.9,252.3,1578,244,1580.7L244,1580.7z M414.7,1580.7c-14,4.7-26.7,18.8-29.6,33.1c-5.7,27.5,21.7,54.9,49.2,49.2
		c20.7-4.3,36.7-25.3,34.7-45.2c-1.5-14-12-28.4-25.3-34.9C435.5,1578.9,422.9,1578,414.7,1580.7L414.7,1580.7z M585.3,1580.7
		c-14,4.7-26.7,18.8-29.6,33.1c-5.7,27.5,21.7,54.9,49.2,49.2c20.7-4.3,36.7-25.3,34.7-45.2c-1.5-14-12-28.4-25.3-34.9
		C606.1,1578.9,593.6,1578,585.3,1580.7L585.3,1580.7z M756,1580.7c-14,4.7-26.7,18.8-29.6,33.1c-5.7,27.5,21.7,54.9,49.2,49.2
		c20.7-4.3,36.7-25.3,34.7-45.2c-1.5-14-12-28.4-25.3-34.9C776.8,1578.9,764.3,1578,756,1580.7L756,1580.7z M926.7,1580.7
		c-14,4.7-26.7,18.8-29.6,33.1c-5.7,27.5,21.7,54.9,49.2,49.2c20.7-4.3,36.7-25.3,34.7-45.2c-1.5-14-12-28.4-25.3-34.9
		C947.5,1578.9,934.9,1578,926.7,1580.7L926.7,1580.7z M1097.3,1580.7c-14,4.7-26.7,18.8-29.6,33.1c-5.7,27.5,21.7,54.9,49.2,49.2
		c20.7-4.3,36.7-25.3,34.7-45.2c-1.5-14-12-28.4-25.3-34.9C1118.1,1578.9,1105.6,1578,1097.3,1580.7L1097.3,1580.7z M1268,1580.7
		c-14,4.7-26.7,18.8-29.6,33.1c-5.7,27.5,21.7,54.9,49.2,49.2c20.7-4.3,36.7-25.3,34.7-45.2c-1.5-14-12-28.4-25.3-34.9
		C1288.8,1578.9,1276.3,1578,1268,1580.7L1268,1580.7z M1438.7,1580.7c-14,4.7-26.7,18.8-29.6,33.1c-5.7,27.5,21.7,54.9,49.2,49.2
		c20.7-4.3,36.7-25.3,34.7-45.2c-1.5-14-12-28.4-25.3-34.9C1459.5,1578.9,1446.9,1578,1438.7,1580.7L1438.7,1580.7z M1609.3,1580.7
		c-14,4.7-26.7,18.8-29.6,33.1c-5.7,27.5,21.7,54.9,49.2,49.2c20.7-4.3,36.7-25.3,34.7-45.2c-1.5-14-12-28.4-25.3-34.9
		C1630.1,1578.9,1617.6,1578,1609.3,1580.7L1609.3,1580.7z"/>
</g>
</svg>
