<svg xmlns="http://www.w3.org/2000/svg" xml:space="preserve" viewBox="0 0 407.3 624.6"><style>.st1{fill:#fff}</style><g id="Layer_1"><path d="M31.7 98V37.2H72V49H44.9v12.4H68v11.7H44.9V98H31.7z" class="st1"/><path d="M108.7 98c-4.6 0-7.9-3.1-8.7-8h-.5c-1.4 5.9-6.4 9-13.4 9-9.1 0-14.2-5.4-14.2-13.3 0-9.7 7.5-14.3 19.6-14.3h7.2v-2.9c0-4.4-2.2-7.2-7.6-7.2-5.1 0-7.8 2.6-9.8 5.4L73.6 60c3.7-5.4 8.9-8.7 18.4-8.7 12.9 0 19.5 5.9 19.5 16.7v20h4.3v10h-7.1zm-10-13.9v-5.4h-6.3c-5 0-7.6 1.8-7.6 5.1v1.3c0 3.3 2.2 4.9 6 4.9 4.3.1 7.9-1.7 7.9-5.9z" class="st1"/><path d="M149 90.3h-.4c-1.3 5-6.4 8.7-12.3 8.7-11.6 0-17.6-8.4-17.6-23.9 0-15.5 6-23.8 17.6-23.8 5.9 0 11 3.7 12.3 8.7h.4V33.6h12.9V98H149v-7.7zm0-8.4V68.4c0-4.2-3.6-6.7-8.4-6.7-4.9 0-8.4 3.7-8.4 9.5v7.9c0 5.7 3.6 9.5 8.4 9.5 4.8 0 8.4-2.5 8.4-6.7z" class="st1"/><path d="M169.3 41.1v-1.9c0-3.7 2.3-6.4 7.5-6.4s7.5 2.7 7.5 6.4v1.9c0 3.7-2.3 6.4-7.5 6.4s-7.5-2.8-7.5-6.4zm1.1 11.2h12.9V98h-12.9V52.3z" class="st1"/><path d="M204.6 98c-8.8 0-12.8-4.4-12.8-12.5V33.6h12.9V88h5.7v10h-5.8z" class="st1"/><path d="M214.8 92.4v-2.1c0-3.7 2.3-6.6 7.7-6.6s7.7 2.9 7.7 6.6v2.1c0 3.7-2.3 6.6-7.7 6.6s-7.7-2.9-7.7-6.6zm5.2-13.6-4.1-24.7V37.2h13.6v16.9l-4 24.7H220z" class="st1"/><path d="M29.4 431.2h7.8v26.7h-7.8v-26.7z" class="st1"/><path d="M48.1 449.6c0-6.1 1.3-10.5 3.9-13.1 2.6-2.6 6.8-4 12.7-4 2.4 0 4.8.2 7.1.6l-1 5.7c-1.7-.2-3.7-.3-6.1-.3-5.3 0-8 3.2-8 9.5v5.1h12.9v5.9H56.8v39h-8.7v-39h-6.6v-3l6.6-2.9v-3.5z" class="st1"/><path d="M98 453c1.6.7 3 2 4.4 3.9h1.4l1.3-2.4c.5-.9 1.2-1.5 2-1.7.8-.2 2-.3 3.5-.3h1.7l-1.6 9.8v25.1c0 2 .2 3.4.6 4.2.4.8 1.3 1.5 2.7 1.9l-1 5.2-.7.3a6 6 0 0 1-1.5.2c-2.9 0-4.8-.9-5.7-2.6l-1.9-3.5h-1.4a17.8 17.8 0 0 1-5 4.7 16 16 0 0 1-7.4 1.4c-6 0-10.5-2.1-13.6-6.4a27.1 27.1 0 0 1-4.7-16.5c0-4.4.8-8.4 2.5-12 1.7-3.7 4.1-6.6 7.2-8.8 3.1-2.2 6.8-3.3 11-3.3 2.5-.2 4.6.2 6.2.8zm-15.2 35.5a9.2 9.2 0 0 0 8.4 4.6c2.9 0 5.5-.7 7.7-2.2a7.3 7.3 0 0 0 3.3-6.4v-23.2c-.8-.7-1.9-1.4-3.6-2.2-1.6-.8-3.4-1.1-5.2-1.1-4.5 0-7.9 1.7-10.1 5.2a24 24 0 0 0-3.3 13.1c-.1 5 .9 9.1 2.8 12.2z" class="st1"/><path d="m135.4 453.1-9.6 16.9-9.6-16.9h19.2zM116.3 498l9.6-16.9 9.6 16.9h-19.2z" class="st1"/><path d="M142.2 492.9a28 28 0 0 1-4.7-17.2c0-7.4 1.8-13.2 5.4-17.4 3.6-4.2 8.7-6.3 15.4-6.3 1.4 0 2.8.2 4.3.5s2.7.6 3.7 1l1.9.7v-20.5h8.7V489l2.1 9.7h-4.2a4 4 0 0 1-3.7-2.3l-1.2-2.3h-1.4a10 10 0 0 1-4.9 3.8c-1.9.7-4.4 1-7.5 1-6.1.1-10.8-1.9-13.9-6zm7.1-4.4c1.7 3.1 4.7 4.6 9.1 4.6 2 0 3.9-.3 5.6-1 1.7-.7 3.1-1.5 4.3-2.5v-29.9l-1.6-.6c-.8-.3-2-.5-3.4-.8-1.5-.3-3-.4-4.8-.4-4.2 0-7.2 1.5-9 4.6a27.2 27.2 0 0 0-2.6 13c-.1 5.6.7 9.9 2.4 13z" class="st1"/><path d="M202.5 450.5v5.5h-5.3v36.5h5.3v5.5h-19.1v-5.5h5.3V456h-5.3v-5.5h19.1z" class="st1"/><path d="M217.9 498h-8.7v-64.4h8.7V498z" class="st1"/><path d="M58.3 175.2h-.4a9 9 0 0 1-4.2 4c-2 1.1-4.3 1.6-7 1.6-5.1 0-9.1-1.6-12-4.7-2.9-3.1-4.4-8-4.4-14.8v-15.1h-7v-9h80.5v9H70.2V161h.4c1.4-2 3.1-3.7 5.2-4.9 2.1-1.2 4.7-1.8 7.8-1.8 2.3 0 4.4.4 6.4 1.2 2 .8 3.7 1.9 5.1 3.4a16 16 0 0 1 3.4 5.3c.8 2.1 1.2 4.3 1.2 6.8 0 5.1-1.4 9.4-4.2 12.7s-7 5.8-12.5 7.1l-4.7-9.4c3.7-1 6.3-2.2 7.9-3.8a7.4 7.4 0 0 0 2.4-5.5v-1.6a7 7 0 0 0-1.7-4.6c-1.1-1.3-2.9-2-5.3-2-1.6 0-3 .3-4.4 1a12.5 12.5 0 0 0-6.2 7c-.6 1.6-.9 3.4-.9 5.3V198H58.3v-22.8zM42.2 161c0 3.4.7 5.8 2 7.2a7.7 7.7 0 0 0 5.8 2.2c3 0 5.1-.7 6.4-2.1 1.3-1.4 1.9-3.4 1.9-5.9v-16H42.2V161z" class="st1"/><path d="M101.1 203.1c-2.2 0-3.9-.5-5-1.5a5.4 5.4 0 0 1-1.7-4.2v-1.9c0-1.8.6-3.2 1.7-4.2s2.8-1.5 5-1.5 3.9.5 5 1.5 1.7 2.4 1.7 4.2v1.9c0 1.8-.6 3.2-1.7 4.2s-2.8 1.5-5 1.5z" class="st1"/><path d="M110.4 146.3h-10.2v-9h32.3v9h-10.2V198h-11.9v-51.7z" class="st1"/><path d="m167.2 197.6-1.2-4.4a34.5 34.5 0 0 1-16.5-.9c-3-.9-5.5-2.2-7.7-4a16.8 16.8 0 0 1-4.9-6.3 19.1 19.1 0 0 1-1.7-8.4c0-6.1 2-11 5.9-14.5 3.9-3.5 9.7-5.3 17.1-5.3h4.8v-7.6h-34v-9h55.4v9H175v17.1h-16.5c-1.9 0-3.6.2-5 .7-1.4.5-2.5 1.2-3.4 2s-1.5 1.9-2 3c-.4 1.1-.7 2.3-.7 3.5v1.8c0 3.2 1 5.8 3 7.7 2 1.9 5 2.8 9.2 2.8 1.4 0 2.7-.1 3.7-.3l-2.2-7.6a14.3 14.3 0 0 1 8.7-2.8c2.8 0 4.9.9 6.5 2.7 1.5 1.8 2.3 4.1 2.3 6.7 0 1.5-.4 2.8-1.1 3.9-.8 1.1-1.8 2.1-3.1 3l2.1 4.2 2.5 7.1-9.3 3-2.5-7.1z" class="st1"/><path d="M191.2 146.3H181v-9h10.2v-3c0-2.6.5-4.9 1.4-7.1.9-2.2 2.3-4.1 4.2-5.8a20 20 0 0 1 6.9-3.9c2.7-.9 5.9-1.4 9.6-1.4 4.8 0 9.4.8 13.7 2.3 4.4 1.5 8.5 3.7 12.4 6.4l-4.8 8.5c-4.2-2.7-8-4.5-11.2-5.6a29.3 29.3 0 0 0-9.6-1.6c-3.7 0-6.4.8-8.1 2.3a7.7 7.7 0 0 0-2.6 5.8v3h10.2v9h-10.2V198h-11.9v-51.7z" class="st1"/><path d="M265.6 173.1c0-5.5-2.3-8.2-6.9-8.2-4.6 0-6.9 2.7-6.9 8.2v9.6h-11.4v-9.2c0-5.7-2.3-8.5-6.8-8.5s-6.8 2.8-6.8 8.5v3.6c0 1.8.2 3.4.6 4.7a8.7 8.7 0 0 0 2 3.5c1 1 2.2 1.8 3.8 2.5 1.6.7 3.5 1.3 5.8 1.8l-2 9.4c-7.8-1.1-13.4-3.7-16.7-7.9a25.4 25.4 0 0 1-5.1-16.7c0-3 .4-5.7 1.2-8.2.8-2.5 1.9-4.6 3.3-6.4a15.1 15.1 0 0 1 12-5.7c3.9 0 7.1.9 9.6 2.8s4.1 4.7 4.9 8.6h.3c.8-3.9 2.1-6.7 4.2-8.4 2-1.7 4.4-2.6 7-2.6 1.9 0 3.4.2 4.6.7 1.2.5 2.3 1.2 3.3 2.1h.4l-.3-6.6v-4.4h-55.9v-9h77.8v9h-10V198h-11.9v-24.9z" class="st1"/><path d="M52.5 318.9c-8.1 0-14.2-2.1-18.3-6.2-4.1-4.1-6.2-10-6.2-17.6a50 50 0 0 1 4.1-18.3l8.4 2.4a36.3 36.3 0 0 0-3.7 14.2c0 3.7 1.1 6.5 3.3 8.5 2.2 2 5.2 3 9 3h7c2.3 0 4.2-.3 5.7-.8a8.8 8.8 0 0 0 3.8-2.7c1-1.2 1.7-2.9 2.1-4.9s.7-4.5.7-7.4v-55.4h10.4V285h9.7v10.4l-2.6 2.6H78a25.1 25.1 0 0 1-7.9 15.8c-4.2 3.4-10 5.1-17.6 5.1z" class="st1"/><path d="M107.5 278.8c0 2.5.7 4.2 2.1 5.1l3.8-6.6c2-3.5 4.1-6.6 6.2-9 2.1-2.5 4.3-4.5 6.7-6.1 2.3-1.6 4.8-2.7 7.4-3.4a32 32 0 0 1 8.3-1.1c6.8 0 12 1.9 15.4 5.6 3.4 3.7 5.1 8.9 5.1 15.6 0 6.6-1.9 11.4-5.6 14.4-3.7 3.1-9.6 4.6-17.6 4.6h-24.9c-4.6 0-8.2-.9-10.6-2.8-2.4-1.9-4-4.9-4.8-8.9h-.5c-.8 4.1-2.2 7-4.2 8.9-2 1.9-4.8 2.8-8.6 2.8v-10.4l2.6-2.6h2.6c4.6 0 7-2 7-6.1v-5.5h9.6v5.5zm31.8 6.1c2.8 0 5.1-.1 6.9-.3 1.8-.2 3.3-.6 4.4-1a5.4 5.4 0 0 0 2.4-2c.5-.9.7-2 .7-3.4 0-2.5-.8-4.4-2.4-5.6-1.6-1.2-4.3-1.8-8.1-1.8h-2.6c-2.6 0-4.9.1-6.9.3-2 .2-3.7.6-5.2 1.2a15.2 15.2 0 0 0-7.6 6.5l-3.7 5.7.3.5h21.8zm-.9-34.2c-1.5 0-2.7-.5-3.7-1.4s-1.4-2.4-1.4-4.4c0-2 .5-3.5 1.4-4.4s2.2-1.4 3.7-1.4h1.7c1.5 0 2.7.5 3.7 1.4s1.4 2.4 1.4 4.4c0 2-.5 3.5-1.4 4.4s-2.2 1.4-3.7 1.4h-1.7z" class="st1"/><path d="M188 298c-5.9 0-10.2-1.4-13.1-4.2-2.8-2.8-4.3-7.3-4.3-13.6v-46.6H181v44.9c0 2.6.5 4.3 1.6 5.2 1 .8 2.8 1.3 5.4 1.3h2.6v10.4L188 298z" class="st1"/><path d="m188.1 287.5 2.6-2.6h16.9c2 0 3.8-.1 5.4-.3 1.7-.2 3-.6 4.2-1.2 1.1-.6 2-1.4 2.7-2.3a7 7 0 0 0 1-3.7v-4h-.5c-1.7 4.6-5.5 6.9-11.6 6.9-4.7 0-8.4-1.2-11-3.7-2.6-2.5-4-5.9-4-10.2 0-3 .4-5.8 1.3-8.4.9-2.6 2.1-4.8 3.7-6.7 1.6-1.9 3.5-3.4 5.7-4.4 2.2-1.1 4.5-1.6 7.1-1.6 5.7 0 10.1 2.4 13.3 7.1a35.4 35.4 0 0 1 4.7 19.8c0 5.3-.5 9.6-1.4 13-.9 3.4-2.3 6-4.1 7.9a14.9 14.9 0 0 1-6.9 4c-2.8.7-6 1.1-9.6 1.1h-19.5v-10.7zm23.3-18.7c2.2 0 4.1-.1 5.6-.3 1.5-.2 2.7-.5 3.7-1-.3-2.8-1.5-5.1-3.3-6.8a10 10 0 0 0-6.8-2.6c-2.3 0-4.2.6-5.7 1.8a5.6 5.6 0 0 0-2.3 4.6c0 1.6.6 2.7 1.9 3.3 1.3.7 3 1 5.2 1h1.7zm-.7-30.7c-1.5 0-2.7-.5-3.7-1.4-1-.9-1.4-2.4-1.4-4.4 0-2 .5-3.5 1.4-4.4 1-.9 2.2-1.4 3.7-1.4h1.7c1.5 0 2.7.5 3.7 1.4 1 .9 1.4 2.4 1.4 4.4 0 2-.5 3.5-1.4 4.4-1 .9-2.2 1.4-3.7 1.4h-1.7z" class="st1"/><path d="M48.1 368.2c4.7 0 8.5.8 11.5 2.5a16.1 16.1 0 0 1 7.9 19.2l-1.6 3.9-1.3-3.1h25.9v9.1h-33l-4.5-5a18 18 0 0 0 2-3.7 14 14 0 0 0 1-5.3c0-2.4-.6-4.4-1.9-6-1.3-1.6-3.2-2.4-5.8-2.4-1.8 0-3.3.4-4.4 1.1-1.2.7-2 1.7-2.6 3a10 10 0 0 0-.9 4.3c0 2.4.4 4.4 1.3 5.9.8 1.6 1.7 3 2.7 4.4l-9.9 4.9a32.8 32.8 0 0 1-5-7.3 19.3 19.3 0 0 1-1.7-8.5c0-3.4.9-6.3 2.6-8.8 1.7-2.5 4.1-4.4 7.2-5.8 2.8-1.7 6.4-2.4 10.5-2.4zm56-18.4c4 0 7.5.5 10.6 1.6 3 1 5.6 2.5 7.6 4.4a17 17 0 0 1 4.9 7.4c1 2.9 1.5 6.8 1.5 11.6v24.9H79.5v-24.1c0-3.6.2-6.6.7-9 .5-2.4 1.2-4.5 2.1-6.2 1-1.7 2.2-3.2 3.6-4.6 2-1.9 4.6-3.3 7.6-4.4 3.1-1.1 6.6-1.6 10.6-1.6zm.2 9.1c-2 0-3.7.3-5 .8-1.4.6-2.6 1.3-3.6 2.3-1 1.1-1.8 2.6-2.4 4.4a31 31 0 0 0-.9 8.7v15.4H116v-14.4c0-4.3-.3-7.4-.9-9.4-.6-2-1.4-3.6-2.3-4.7-.9-1-2.1-1.8-3.5-2.3-1.5-.5-3.2-.8-5-.8z" class="st1"/><path d="M180.5 375.1a43 43 0 0 1-1.1 9.7c-.7 3.1-2 5.8-3.7 8.2-1.7 2.4-4.1 4.3-7 5.7s-6.7 2-11.2 2c-3.8 0-7-.5-9.7-1.6-2.6-1-4.7-2.4-6.4-4a18.1 18.1 0 0 1-3.8-5.5c-.9-2-1.6-4-2-5.9l13-2.2 1.5 4.5c.6 1.5 1.5 2.9 2.7 4a6.8 6.8 0 0 0 4.8 1.6c2.3 0 4.2-.7 5.6-2.1 1.4-1.4 2.4-3.3 3.1-5.8a36.3 36.3 0 0 0 0-17.2c-.6-2.5-1.7-4.4-3-5.8a7.3 7.3 0 0 0-5.4-2.1c-1.9 0-3.4.5-4.6 1.5a11 11 0 0 0-2.9 3.8 26 26 0 0 0-1.6 4.7l-13-2.3c.6-2 1.5-3.9 2.5-5.9a19.3 19.3 0 0 1 10.6-9.4c2.6-1 5.8-1.5 9.5-1.5 4.2 0 7.8.7 10.6 2 2.8 1.4 5.1 3.2 6.8 5.6 1.7 2.3 2.9 5 3.6 8.1a47 47 0 0 1 1.1 9.9z" class="st1"/><path d="M220.9 349.8c4.8 0 8.7.6 11.8 1.8a15 15 0 0 1 7 5c1.5 2.1 2.3 4.4 2.3 7 0 2.7-.6 5-1.8 6.9a15 15 0 0 1-6.4 5.1l-.2-.4c3.1 1.1 5.5 2.7 7 4.7 1.5 2.1 2.3 4.5 2.3 7.4a12 12 0 0 1-4.6 10 21.7 21.7 0 0 1-13.5 3.6c-2.4 0-4.5-.1-6.4-.3l-5-.7 1.6-9 3.8.6c1.2.2 2.4.3 3.7.3 2.7 0 4.7-.4 5.9-1.3 1.2-.8 1.8-2.2 1.8-4.2a6 6 0 0 0-.5-2.3c-.3-.7-.9-1.4-1.7-2-.8-.6-1.7-1-2.9-1.3a22 22 0 0 0-5.2-.5h-4.5v-9h4.3c1.9 0 3.4-.2 4.7-.5 1.3-.3 2.4-.9 3.3-1.7a5.4 5.4 0 0 0 1.5-3.9c0-2-.7-3.5-2.2-4.5a12 12 0 0 0-6.6-1.5c-4.4 0-8.1.9-11 2.8a16.9 16.9 0 0 0-6.5 7.7 28 28 0 0 0-2.2 11.7A61.8 61.8 0 0 0 203 398l-12 2.3a60.8 60.8 0 0 1-3.2-19.7c0-6.3 1.2-11.8 3.7-16.3a25 25 0 0 1 11-10.6c5-2.7 11.1-3.9 18.4-3.9z" class="st1"/><path d="M244.2 325.7c2.6 0 4.8.2 6.9.7 2 .5 3.8 1.3 5.4 2.3 2 1.3 3.5 2.8 4.7 4.6 1.1 1.8 2 4.1 2.5 6.9.5 2.8.8 6.5.8 11.1v48.5h-12.9v-46.5l-.2-7.4c-.1-2.1-.3-3.8-.7-5.1-.3-1.4-.8-2.5-1.3-3.3a7.6 7.6 0 0 0-2.1-1.9 6 6 0 0 0-3.2-.7c-1 0-1.9.2-2.9.7-.9.4-1.7 1.1-2.2 2a6 6 0 0 0-.8 3.4l.1 1.6.3 1.5-12.5 1.5-.5-2.2-.2-2.5c0-3.4.8-6.2 2.5-8.4s3.9-3.9 6.7-5c2.7-1.3 6-1.8 9.6-1.8z" class="st1"/><path d="M340.5 349.8a76.3 76.3 0 0 1 18 2.1l6.1 2 3.1 1.4c5.2 2.8 9.1 6.4 11.7 10.6 2.6 4.2 4 9 4 14.4 0 6.2-1.7 11.2-5.2 14.9-3.5 3.7-8.6 5.6-15.5 5.6-4.3 0-8-.8-11-2.4s-5.2-4-6.8-7.1a25.9 25.9 0 0 1 2.9-26.3 44 44 0 0 1 8.4-8.3l1.3-2.2c2.4-2 4.3-3.8 5.6-5.3a7.5 7.5 0 0 0 1.9-5c0-1.5-.5-2.7-1.4-3.6-.9-.9-2.4-1.3-4.5-1.3-1 0-2.1.1-3.1.3l-2.5.5-2.3-8.4a50.7 50.7 0 0 1 12.2-1.5c3.8 0 6.8.6 8.8 1.8a9.8 9.8 0 0 1 4.3 4.5c.8 1.8 1.2 3.6 1.2 5.4 0 3.1-.9 6.1-2.6 8.8a34 34 0 0 1-7.7 8.2l-1.4 1.4c-2.6 2-4.6 4.1-6.2 6.4a23.8 23.8 0 0 0-3.6 19.8c.5 1.7 1.3 3 2.5 3.9 1.1.9 2.6 1.3 4.3 1.3 2.4 0 4.3-.9 5.5-2.7a15 15 0 0 0 1.9-8.3 21.5 21.5 0 0 0-10.8-18.4l-3.7-1.1c-2.3-.9-4.7-1.5-7.2-1.8a66 66 0 0 0-15.7 0c-2.6.3-5 .9-7.3 1.7l-3.4 1c-3.1 1.6-5.8 4-8 7.2a21.3 21.3 0 0 0-2.2 18.1 6.7 6.7 0 0 0 3 3.2c1.2.7 2.5 1 3.8 1 1.4 0 2.7-.3 3.9-1a7.2 7.2 0 0 0 2.9-3.6c.7-1.7 1.1-4.1 1.1-7.1s-.5-5.8-1.5-8.4c-1-2.6-2.4-4.8-4.3-6.7a24 24 0 0 0-6.6-4.7l-2.2-.6a34 34 0 0 0-7.1-.9c-4.4 0-8 .7-10.8 2.1a14.4 14.4 0 0 0-6.3 5.9 22.8 22.8 0 0 0-1 15.8 24 24 0 0 0 3 6c1.3 1.9 2.9 3.7 4.9 5.7l-8.5 6.6a49.4 49.4 0 0 1-6.9-6.8 28.2 28.2 0 0 1-6.4-18.7c0-3.1.5-6.2 1.6-9.2 1.1-3 2.8-5.8 5.2-8.2 2.4-2.5 5.6-4.4 9.5-5.9a43 43 0 0 1 14.5-2.2 42.8 42.8 0 0 1 16.9 3.5l2.4 1c5 2.6 9 6.1 12 10.5a26 26 0 0 1 4.4 15.1 26 26 0 0 1-2.4 11.7c-1.6 3.1-4 5.5-7.1 7s-7 2.3-11.6 2.3c-4.3 0-8-.8-11-2.3a15.9 15.9 0 0 1-7-6.8c-1.6-3-2.4-6.5-2.4-10.7a24.8 24.8 0 0 1 7.5-18.2 36 36 0 0 1 9.2-6.5l1.7-1.3c3-1.7 6.4-3 10.3-3.8a56 56 0 0 1 13.7-1.4z" class="st1"/><path d="M32 598v-60.7h40.3V548H45v13.9h24.4v10.7H45V598H32z" class="st1"/><path d="M116.1 598c-2.7 0-4.8-.7-6.4-2a8.8 8.8 0 0 1-2.9-5.9h-.4c-.8 3-2.4 5.2-4.8 6.7a16.5 16.5 0 0 1-8.8 2.3c-4.3 0-7.8-1.2-10.5-3.5-2.6-2.3-4-5.6-4-9.9 0-4.7 1.7-8.2 5.1-10.4a27 27 0 0 1 15.1-3.4h7.2v-2.3c0-2.7-.6-4.7-1.9-6-1.2-1.4-3.3-2-6.3-2a12 12 0 0 0-6.6 1.6c-1.7 1-3.1 2.4-4.4 4.1l-7-6.3c1.5-2.6 3.9-4.7 7.1-6.3 3.2-1.7 7.4-2.5 12.4-2.5 6.1 0 10.9 1.4 14.4 4.2 3.5 2.8 5.2 7.1 5.2 12.7v19.7h5v9.3h-7.5zm-18.5-7.4c2.3 0 4.2-.5 5.7-1.7 1.6-1.1 2.3-2.7 2.3-4.8v-5.4h-6.9c-5.3 0-7.9 1.8-7.9 5.3v1.7a4 4 0 0 0 1.8 3.6c1.3.9 2.9 1.3 5 1.3z" class="st1"/><path d="M156.6 589.7h-.6c-1.2 2.8-2.8 5-4.8 6.7a13 13 0 0 1-8.5 2.6c-2.5 0-4.8-.5-6.8-1.4-2.1-.9-3.8-2.3-5.3-4.3s-2.6-4.3-3.5-7.3a40.7 40.7 0 0 1 0-21c.8-3 2-5.4 3.5-7.3a14.6 14.6 0 0 1 12.1-5.7 14.3 14.3 0 0 1 8.5 2.6c1.1.8 2 1.8 2.8 2.9.8 1.1 1.5 2.4 2 3.7h.6v-27.7h12.9V598h-12.9v-8.3zm-8.3-.8c2.3 0 4.2-.5 5.9-1.6 1.7-1.1 2.5-2.8 2.5-5.2V569c0-2.4-.8-4.1-2.5-5.2a10.4 10.4 0 0 0-5.9-1.6c-2.9 0-5.1.9-6.7 2.6s-2.3 4.2-2.3 7.3v6.9c0 3.1.8 5.5 2.3 7.3 1.5 1.7 3.8 2.6 6.7 2.6z" class="st1"/><path d="M179.3 587.9h14.3v-24.7h-14.3v-10.1h27.1v34.8h13.2V598h-40.4v-10.1zm20.7-40.6c-2.9 0-4.9-.6-6-1.8a6.1 6.1 0 0 1-1.7-4.3v-2.5c0-1.7.6-3.2 1.7-4.4 1.1-1.2 3.1-1.7 6-1.7s4.9.6 6 1.7a6.2 6.2 0 0 1 1.7 4.4v2.5c0 1.7-.6 3.1-1.7 4.3-1 1.2-3.1 1.8-6 1.8z" class="st1"/><path d="M225.8 587.9h13.7v-44.2h-13.7v-10.1h26.6v54.3h13.7V598h-40.4v-10.1z" class="st1"/></g></svg>